# xmcd
#
# Track frame offsets:
#	150
#	20475
#	24002
#	26195
#	27805
#
# Disc length: 393 seconds
#
# Revision: 1
# Processed by: cddbd v1.5.1PL0 Copyright (c) Steve Scherf et al.
# Submitted via: CDex 1.50Beta5
#
DISCID=2d018705
DTITLE=木之本桜 - カードキャプターさくら さくらのおしゃべりトークCD
DYEAR=1900
DGENRE=Anime
TTITLE0=さくらのボイス・レター
TTITLE1=留守電メッセージ
TTITLE2=目覚ましメッセージ
TTITLE3=おやすみメッセージ
TTITLE4=さくら一言セリフ集
EXTD=非売品
EXTT0=
EXTT1=
EXTT2=
EXTT3=
EXTT4=
PLAYORDER=
